# xmcd
#
# Track frame offsets:
# 150
# 26340
# 50465
# 61358
# 74233
# 100501
# 118198
# 136308
# 150049
# 169413
# 194972
# 203854
# 227288
# 243348
# 259494
# 286461
# 305464
# 319114
# 334471
#
# Disc length: 4608 seconds
#
# Revision: 0
# Processed by: cddbd v1.5PL3 Copyright (c) Steve Scherf et al.
# Submitted via: Audion 3.0.2 (http://www.panic.com/audion/)
#
DISCID=1e11fe13
DTITLE=Clouddead - Ten
DYEAR=1900
DGENRE=
TTITLE0=1
TTITLE1=2
TTITLE2=3
TTITLE3=4
TTITLE4=54
TTITLE5=6
TTITLE6=7
TTITLE7=3 Twenty
TTITLE8=Physics of a Unicycle
TTITLE9=Our Name 
TTITLE10=1
TTITLE11=1
TTITLE12=1
TTITLE13=1
TTITLE14=1
TTITLE15=1
TTITLE16=1
TTITLE17=1
TTITLE18=1
EXTD=
EXTT0=
EXTT1=
EXTT2=
EXTT3=
EXTT4=
EXTT5=
EXTT6=
EXTT7=
EXTT8=
EXTT9=
EXTT10=
EXTT11=
EXTT12=
EXTT13=
EXTT14=
EXTT15=
EXTT16=
EXTT17=
EXTT18=
PLAYORDER=
